<?xml version="1.0" standalone="no"?>
<!DOCTYPE svg PUBLIC "-//W3C//DTD SVG 20010904//EN"
 "http://www.w3.org/TR/2001/REC-SVG-20010904/DTD/svg10.dtd">
<svg version="1.0" xmlns="http://www.w3.org/2000/svg"
 width="1016.000000pt" height="1016.000000pt" viewBox="0 0 1016.000000 1016.000000"
 preserveAspectRatio="xMidYMid meet">
<metadata>
Created by potrace 1.14, written by Peter Selinger 2001-2017
</metadata>
<g transform="translate(0.000000,1016.000000) scale(0.100000,-0.100000)"
fill="#000000" stroke="none">
<path d="M4478 10155 c-1 -2 -34 -6 -73 -9 -38 -3 -81 -8 -95 -10 -14 -3 -43
-7 -65 -10 -22 -3 -51 -8 -65 -11 -14 -3 -41 -8 -60 -11 -39 -6 -149 -31 -195
-45 -170 -50 -333 -106 -350 -121 -5 -4 -15 -8 -21 -8 -14 0 -232 -106 -304
-147 -58 -33 -182 -110 -195 -121 -6 -5 -24 -17 -40 -28 -17 -10 -35 -23 -42
-29 -7 -5 -19 -16 -27 -22 -8 -7 -19 -13 -25 -13 -5 0 -11 -3 -13 -7 -1 -5
-19 -21 -38 -36 -19 -16 -55 -45 -80 -65 -58 -48 -284 -274 -332 -332 -20 -25
-49 -61 -65 -80 -15 -19 -36 -44 -45 -54 -10 -11 -18 -23 -18 -27 0 -4 -6 -14
-13 -21 -7 -7 -27 -35 -44 -63 -18 -27 -39 -57 -48 -66 -8 -9 -15 -18 -15 -21
0 -5 -59 -108 -90 -158 -18 -29 -117 -235 -125 -260 -4 -14 -11 -30 -15 -35
-9 -11 -26 -57 -70 -190 -43 -129 -46 -140 -70 -245 -61 -267 -75 -393 -74
-695 0 -191 3 -244 20 -370 12 -92 26 -174 44 -250 6 -27 13 -57 15 -65 19
-94 98 -330 146 -437 10 -23 20 -48 21 -55 2 -7 5 -15 8 -18 3 -3 18 -32 33
-65 29 -61 134 -252 149 -270 5 -5 27 -39 49 -75 23 -36 45 -66 50 -68 5 -2 9
-8 9 -13 0 -6 8 -19 18 -30 11 -10 25 -30 32 -44 12 -23 10 -28 -36 -72 -76
-74 -159 -169 -204 -233 -13 -19 -27 -37 -31 -40 -3 -3 -28 -43 -55 -90 -27
-47 -51 -87 -54 -90 -10 -10 -65 -134 -63 -142 2 -4 -1 -8 -6 -8 -5 0 -12 -16
-15 -35 -4 -19 -11 -35 -16 -35 -6 0 -9 -3 -8 -7 1 -5 -4 -26 -11 -48 -19 -60
-28 -92 -49 -180 -20 -80 -25 -106 -39 -200 -9 -60 -9 -393 0 -450 3 -22 9
-58 12 -80 3 -22 8 -47 10 -55 2 -8 7 -28 9 -45 19 -108 90 -302 166 -450 72
-139 112 -200 238 -358 21 -25 183 -186 209 -207 10 -8 39 -32 65 -52 25 -21
49 -38 53 -38 3 0 18 -11 33 -25 15 -14 31 -25 35 -25 5 0 23 -11 40 -24 44
-33 265 -139 357 -171 108 -37 277 -78 375 -91 95 -13 304 -15 1295 -16 624 0
1140 -4 1145 -8 6 -4 21 -10 35 -13 40 -10 105 -72 130 -124 30 -63 31 -191 3
-215 -7 -6 -13 -16 -13 -22 0 -17 -69 -81 -110 -101 -21 -11 -59 -19 -97 -19
-35 -1 -63 -4 -63 -8 0 -4 -6 -5 -12 -3 -23 9 -109 11 -114 3 -3 -5 -10 -5
-16 -2 -14 9 -178 11 -178 2 0 -4 -6 -5 -12 -3 -23 9 -109 11 -114 3 -3 -5
-10 -5 -16 -2 -14 9 -178 11 -178 2 0 -4 -6 -5 -12 -3 -23 9 -109 11 -114 3
-3 -5 -10 -5 -16 -2 -14 9 -178 11 -178 2 0 -4 -6 -5 -12 -3 -23 9 -109 11
-114 3 -3 -5 -10 -5 -16 -2 -6 4 -67 6 -137 5 -69 -1 -130 -2 -136 -2 -5 1
-64 1 -131 2 -66 1 -126 -1 -132 -5 -6 -3 -13 -2 -17 3 -3 7 -15 7 -29 1 -13
-5 -26 -6 -30 -3 -5 5 -43 7 -87 4 -13 -1 -15 -85 -15 -806 l0 -804 1021 3
c561 2 1043 6 1070 10 88 11 99 13 125 20 14 3 36 8 50 11 39 7 162 41 193 54
15 6 27 8 27 5 0 -4 6 -2 13 3 6 6 30 16 52 23 22 7 55 21 73 31 17 10 32 16
32 13 0 -4 6 -2 13 4 7 6 47 29 90 51 87 45 257 159 257 171 0 5 9 11 20 15
18 6 260 238 260 249 0 6 24 36 46 60 14 14 113 161 130 191 60 107 92 174 87
179 -4 3 -1 6 5 6 7 0 12 5 12 10 0 6 7 27 16 48 10 20 18 42 20 47 1 6 12 37
24 70 11 33 23 70 25 82 3 12 9 33 14 45 5 13 9 26 9 31 0 4 5 31 11 60 40
194 46 480 16 652 -27 152 -79 343 -114 420 -92 201 -145 292 -244 423 -66 88
-277 311 -277 295 0 -5 -5 0 -11 9 -5 10 -14 18 -19 18 -5 0 -24 14 -42 31
-80 74 -332 213 -493 273 -109 40 -261 78 -365 92 -25 3 -56 8 -70 11 -14 3
-549 7 -1190 9 -641 1 -1178 4 -1195 7 -80 11 -175 93 -193 167 -32 135 16
248 133 308 l50 25 675 3 c371 1 695 5 720 8 25 3 65 8 90 11 25 3 59 7 75 10
17 3 48 8 70 11 22 3 47 8 55 11 8 3 26 7 40 9 33 5 65 12 65 14 0 1 9 3 20 5
40 7 73 15 114 29 22 9 41 13 41 10 0 -2 13 2 30 11 16 8 31 15 32 14 13 -9
404 151 418 171 3 4 22 13 42 19 21 7 40 16 43 21 3 5 37 26 75 47 39 20 70
41 70 45 0 4 6 8 13 8 7 0 29 11 48 25 19 14 45 33 59 42 60 43 196 147 211
162 9 9 38 35 65 58 158 134 366 374 489 563 27 41 51 77 55 80 5 5 25 40 61
108 9 18 23 40 31 49 7 9 12 17 10 17 -5 2 11 40 18 46 7 5 48 94 50 108 1 4
7 16 14 27 16 25 97 238 124 325 29 92 72 275 77 321 2 22 6 43 9 48 3 4 8 30
11 57 9 83 16 137 22 179 3 22 6 384 7 805 l1 765 385 5 385 5 0 800 0 800
-465 2 c-263 1 -493 -3 -530 -8 -36 -6 -76 -12 -90 -13 -14 -2 -32 -6 -40 -9
-8 -3 -40 -11 -70 -17 -30 -6 -64 -15 -75 -20 -11 -5 -38 -14 -60 -20 -51 -15
-325 -149 -325 -160 0 -4 -13 -13 -30 -20 -16 -7 -30 -16 -30 -20 0 -4 -9 -11
-19 -16 -29 -13 -105 -79 -188 -162 l-74 -74 -81 54 c-97 63 -89 58 -219 130
-108 59 -246 125 -299 143 -3 1 -14 5 -25 10 -88 36 -234 86 -295 100 -28 6
-105 26 -115 29 -5 1 -28 6 -50 11 -22 4 -49 10 -60 12 -11 2 -33 6 -50 8 -16
2 -41 7 -55 10 -14 3 -47 8 -75 11 -27 3 -63 7 -80 10 -34 6 -501 14 -507 9z
m467 -1629 c154 -33 408 -137 445 -181 7 -8 17 -15 23 -15 17 0 126 -88 203
-165 113 -112 208 -247 271 -385 21 -45 85 -223 83 -228 -1 -1 3 -26 9 -55 5
-28 13 -72 17 -97 8 -58 9 -252 0 -310 -3 -25 -8 -63 -11 -85 -23 -171 -134
-423 -255 -580 -35 -45 -216 -225 -227 -225 -6 0 -13 -4 -15 -8 -12 -30 -284
-181 -357 -198 -14 -4 -30 -10 -36 -14 -15 -11 -171 -45 -260 -57 -65 -8 -234
-8 -305 0 -83 10 -176 32 -265 61 -88 30 -285 125 -285 138 0 4 -5 8 -11 8
-32 0 -215 163 -297 265 -32 39 -60 72 -64 73 -5 2 -8 8 -8 13 0 5 -16 32 -34
60 -19 27 -41 65 -47 84 -7 19 -17 35 -21 35 -4 0 -8 8 -8 18 0 10 -4 22 -9
28 -7 7 -58 139 -59 154 0 3 -3 12 -6 20 -50 144 -56 486 -12 655 47 179 116
331 208 460 18 25 125 152 143 170 199 197 466 330 740 371 22 3 42 7 43 9 12
11 337 -4 407 -19z"/>
</g>
</svg>
