<svg width="694" height="768" viewBox="0 0 694 768" fill="none" xmlns="http://www.w3.org/2000/svg">
<g style="mix-blend-mode:overlay" opacity="0.2">
<path d="M176.586 469.711C176.524 491.12 185.032 511.664 200.211 526.762C201.619 528.173 203.071 529.525 204.566 530.816C204.569 530.812 204.574 530.808 204.576 530.804L204.576 530.807C219.201 543.494 237.929 550.452 257.289 550.395L326.627 550.395C363.929 550.438 394.157 580.667 394.201 617.969L394.201 672.56C394.18 696.124 402.912 718.855 418.705 736.344C418.705 736.343 418.707 736.343 418.707 736.342C418.705 736.344 418.702 736.347 418.7 736.349L418.707 736.344C445.12 765.748 486.93 775.823 523.837 761.674C560.744 747.526 585.104 712.086 585.092 672.56L585.092 563.383C585.092 556.209 590.907 550.395 598.078 550.395C605.252 550.395 611.066 556.209 611.066 563.383L611.066 659.201L693.521 659.201L693.521 563.383C693.521 510.669 650.789 467.936 598.076 467.936C545.363 467.936 502.63 510.669 502.63 563.383L502.63 672.56C502.63 679.734 496.815 685.549 489.642 685.549C482.468 685.549 476.652 679.734 476.652 672.56L476.652 618.105C476.652 618.062 476.656 618.013 476.656 617.969C476.67 568.303 452.199 523.019 413.119 495.431C412.867 495.254 412.605 495.094 412.354 494.918C409.41 492.867 406.4 490.903 403.298 489.058C402.655 488.673 401.983 488.33 401.33 487.956C398.591 486.381 395.817 484.854 392.962 483.448C391.891 482.919 390.781 482.452 389.695 481.947C387.203 480.793 384.704 479.657 382.133 478.634C380.616 478.028 379.056 477.505 377.512 476.945C375.815 476.333 374.159 475.642 372.427 475.088C371.898 474.918 371.313 474.79 370.774 474.626C370.315 474.484 369.877 474.297 369.417 474.159L369.417 474.163C369.855 474.295 370.268 474.472 370.705 474.606C352.382 469.037 329.443 466.882 306.069 467.948L259.049 467.948L259.049 428.483L176.591 428.483L176.586 428.483L176.586 469.711ZM413.072 495.401C412.902 495.28 412.721 495.169 412.546 495.048C412.719 495.17 412.902 495.278 413.072 495.401ZM403.243 489.028C402.69 488.698 402.112 488.403 401.553 488.08C402.112 488.403 402.69 488.697 403.243 489.028ZM392.895 483.418C391.921 482.939 390.914 482.513 389.926 482.053C390.911 482.514 391.921 482.937 392.895 483.418ZM382.075 478.613C380.641 478.043 379.169 477.546 377.712 477.018C379.169 477.548 380.644 478.041 382.075 478.613Z" fill="#0D0D16"/>
<path d="M176.586 617.969C176.586 700.829 243.757 768 326.618 768C409.475 768 476.647 700.828 476.647 617.969C476.647 535.108 409.475 467.938 326.618 467.938C243.757 467.938 176.586 535.108 176.586 617.969ZM394.189 617.969C394.189 655.289 363.936 685.542 326.616 685.542C289.297 685.542 259.042 655.289 259.042 617.969C259.042 580.649 289.297 550.395 326.616 550.395C363.936 550.395 394.189 580.649 394.189 617.969Z" fill="#0D0D16"/>
<path d="M204.629 530.849C219.246 543.507 237.953 550.452 257.29 550.395L326.627 550.395C326.799 550.395 326.965 550.42 327.139 550.422C360.506 550.677 388.04 575.117 393.232 607.076C393.813 610.63 394.197 614.251 394.201 617.969L394.201 672.559C394.18 696.096 402.896 718.799 418.654 736.281C453.892 708.827 476.648 666.101 476.648 617.969C476.648 613.263 476.368 608.625 475.942 604.029C475.871 603.242 475.813 602.452 475.725 601.668C475.258 597.328 474.597 593.045 473.764 588.824C473.577 587.871 473.355 586.929 473.15 585.982C472.319 582.165 471.36 578.398 470.248 574.696C470.031 573.978 469.832 573.254 469.606 572.54C468.429 568.839 467.067 565.222 465.62 561.651C465.123 560.432 464.63 559.211 464.106 558.007C462.566 554.486 460.913 551.03 459.119 547.657C458.511 546.516 457.857 545.408 457.22 544.285C455.658 541.52 454.014 538.81 452.283 536.158C451.682 535.236 451.117 534.288 450.498 533.38C448.339 530.224 446.027 527.186 443.641 524.21C442.777 523.135 441.9 522.069 441.008 521.017C438.541 518.11 436 515.27 433.321 512.56C432.523 511.751 431.673 510.99 430.854 510.199C428.646 508.062 426.369 505.999 424.032 504C422.986 503.106 421.958 502.193 420.885 501.326C418.032 499.017 415.08 496.827 412.061 494.727C410.262 493.48 408.389 492.327 406.533 491.152C404.651 489.963 402.763 488.788 400.825 487.682C398.869 486.565 396.873 485.511 394.865 484.474C392.897 483.464 390.897 482.513 388.877 481.589C386.833 480.648 384.78 479.726 382.683 478.874C379.193 477.466 375.665 476.13 372.051 474.982C371.626 474.863 371.191 474.753 370.775 474.626C370.539 474.553 370.311 474.471 370.082 474.387C370.063 474.382 370.047 474.379 370.03 474.373C370.253 474.455 370.476 474.536 370.706 474.607C357.796 470.683 342.543 468.545 326.515 467.943C276.219 467.979 231.827 492.839 204.629 530.849Z" fill="#0D0D16"/>
<path d="M177.326 297.595L177.326 380.051L476.983 380.051L476.983 297.595L177.326 297.595Z" fill="#0D0D16"/>
<path d="M1.36334 297.595L1.36334 380.051L88.4009 380.051L88.4009 297.595L1.36334 297.595Z" fill="#0D0D16"/>
<path d="M298.91 30.5099C298.902 30.5156 298.895 30.5194 298.889 30.525C276.674 10.8381 248.013 -0.0205492 218.331 0.0059719L177.103 0.0059737L177.103 82.4574L218.331 82.4574C240.04 82.4924 257.629 100.082 257.663 121.79C257.663 122.325 257.72 122.856 257.728 123.391C257.725 123.25 257.73 123.11 257.73 122.969C257.751 125.343 257.857 127.712 258.017 130.076C258.001 129.84 257.985 129.604 257.969 129.367C258.044 130.587 258.105 131.806 258.218 133.021C258.206 132.893 258.202 132.765 258.192 132.636C258.415 135.13 258.736 137.612 259.113 140.087C259.058 139.72 259.007 139.354 258.955 138.987C259.124 140.172 259.259 141.359 259.462 142.538C259.443 142.423 259.432 142.304 259.414 142.189C259.901 145.066 260.502 147.922 261.198 150.759C261.039 150.113 260.918 149.464 260.771 148.817C261.006 149.851 261.191 150.895 261.452 151.923C261.427 151.819 261.411 151.713 261.385 151.609C262.192 154.807 263.126 157.974 264.194 161.103L264.222 161.117L264.176 161.117C263.14 158.088 262.243 155.017 261.452 151.923C262.24 155.004 263.138 158.072 264.176 161.117L-3.60427e-06 161.117L0 243.573L379.45 243.573L477.361 243.573L477.361 161.117L379.469 161.117L379.458 161.117L379.458 161.116C379.462 161.116 379.466 161.117 379.469 161.117C379.466 161.117 379.462 161.115 379.46 161.115L379.469 161.103C357.762 161.067 340.174 143.479 340.14 121.771C340.14 120.568 339.984 119.387 339.949 118.19C340.465 112.573 342.121 107.039 345.054 101.999C352.175 89.7679 365.318 82.3051 379.469 82.4575L477.377 82.4575L477.377 0.0013982L379.469 0.00140248C349.789 -0.0251007 321.131 10.8335 298.918 30.5176C298.913 30.5155 298.912 30.5119 298.91 30.5099Z" fill="#0D0D16"/>
<path d="M298.918 30.5173C298.914 30.5154 298.912 30.5116 298.91 30.5097C272.688 53.5905 257.67 86.8387 257.682 121.771C257.67 135.151 259.871 148.44 264.194 161.103L264.222 161.117L264.176 161.117C281.062 210.39 327.364 243.513 379.45 243.573L477.361 243.573L477.361 161.117L379.469 161.117L379.458 161.117L379.458 161.116C379.462 161.116 379.466 161.117 379.469 161.117C379.466 161.117 379.462 161.115 379.46 161.115L379.469 161.103C357.762 161.067 340.174 143.478 340.14 121.771C340.14 120.568 339.984 119.387 339.949 118.189C340.465 112.573 342.121 107.039 345.054 101.998C352.175 89.7677 365.318 82.3049 379.469 82.4573L477.377 82.4573L477.377 0.00122636L379.469 0.00123064C349.789 -0.0253794 321.131 10.8331 298.918 30.5173Z" fill="#0D0D16"/>
<path d="M298.911 30.5231C325.131 53.6039 340.151 86.8521 340.138 121.785C340.174 143.492 357.763 161.08 379.47 161.116C365.318 161.269 352.175 153.807 345.054 141.575C337.933 129.343 337.933 114.229 345.054 101.998C352.175 89.7677 365.318 82.3048 379.47 82.4572L477.378 82.4572L477.378 0.000160046L379.47 0.000164325C349.786 -0.0262473 321.124 10.8342 298.911 30.5231Z" fill="#0D0D16"/>
</g>
</svg>
