<svg width="80" height="72" viewBox="0 0 80 72" fill="none" xmlns="http://www.w3.org/2000/svg">
<path d="M30.9679 18.3329C28.7452 18.3264 26.6124 19.2097 25.0449 20.7856C24.8984 20.9318 24.7581 21.0825 24.624 21.2377C24.6245 21.238 24.6249 21.2385 24.6253 21.2387H24.625C23.3079 22.7571 22.5855 24.7014 22.5914 26.7113V33.9098C22.587 37.7824 19.4486 40.9206 15.576 40.9252H9.90853C7.46218 40.923 5.10225 41.8295 3.28657 43.4691C3.28666 43.4691 3.28667 43.4693 3.28677 43.4693C3.28657 43.4691 3.28627 43.4688 3.28609 43.4686L3.28658 43.4693C0.233872 46.2115 -0.812061 50.5522 0.656886 54.3838C2.12572 58.2153 5.80498 60.7443 9.90855 60.7431H21.2431C21.9878 60.7431 22.5914 61.3468 22.5914 62.0913C22.5914 62.8361 21.9878 63.4397 21.2431 63.4397H11.2954V72H21.2431C26.7157 72 31.1521 67.5637 31.1521 62.0911C31.1521 56.6186 26.7157 52.1821 21.2431 52.1821H9.90853C9.16373 52.1821 8.56001 51.5784 8.56001 50.8337C8.56001 50.0889 9.16374 49.4851 9.90853 49.4851H15.5619C15.5664 49.4851 15.5715 49.4855 15.576 49.4855C20.7323 49.487 25.4335 46.9464 28.2977 42.8892C28.3161 42.863 28.3327 42.8359 28.351 42.8098C28.5638 42.5042 28.7678 42.1917 28.9593 41.8696C28.9992 41.8029 29.0348 41.7331 29.0738 41.6653C29.2373 41.3809 29.3957 41.093 29.5417 40.7966C29.5967 40.6854 29.6451 40.5702 29.6975 40.4574C29.8174 40.1986 29.9353 39.9392 30.0415 39.6723C30.1044 39.5148 30.1587 39.3529 30.2168 39.1925C30.2804 39.0164 30.3521 38.8445 30.4096 38.6647C30.4273 38.6098 30.4406 38.549 30.4576 38.4931C30.4723 38.4454 30.4918 38.4 30.5061 38.3522H30.5056C30.492 38.3976 30.4736 38.4406 30.4596 38.4859C31.0378 36.5836 31.2615 34.2021 31.1509 31.7756V26.894H35.2481V18.3333V18.3329H30.9679ZM28.3008 42.8844C28.3134 42.8667 28.3249 42.8479 28.3374 42.8297C28.3248 42.8477 28.3135 42.8667 28.3008 42.8844ZM28.9625 41.8639C28.9967 41.8065 29.0273 41.7465 29.0609 41.6884C29.0273 41.7465 28.9968 41.8065 28.9625 41.8639ZM29.5448 40.7896C29.5946 40.6885 29.6388 40.5839 29.6865 40.4814C29.6387 40.5836 29.5948 40.6885 29.5448 40.7896ZM30.0437 39.6663C30.1028 39.5175 30.1545 39.3646 30.2092 39.2134C30.1543 39.3646 30.103 39.5177 30.0437 39.6663Z" fill="#2FBF71"/>
<path d="M15.5759 18.3329C6.97361 18.3329 0 25.3065 0 33.9089C0 42.511 6.97362 49.4847 15.5759 49.4847C24.1783 49.4847 31.1518 42.511 31.1518 33.9089C31.1518 25.3065 24.1783 18.3329 15.5759 18.3329ZM15.5759 40.924C11.7014 40.924 8.56064 37.7832 8.56064 33.9087C8.56064 30.0343 11.7014 26.8933 15.5759 26.8933C19.4504 26.8933 22.5913 30.0343 22.5913 33.9087C22.5913 37.7832 19.4504 40.924 15.5759 40.924Z" fill="white"/>
<path d="M24.6205 21.2442C23.3064 22.7616 22.5854 24.7038 22.5913 26.7113V33.9098C22.5913 33.9276 22.5887 33.9449 22.5885 33.9628C22.562 37.427 20.0247 40.2855 16.7068 40.8246C16.3378 40.8848 15.9619 40.9247 15.5759 40.9252H9.90845C7.46494 40.923 5.10798 41.8278 3.29297 43.4638C6.14318 47.1221 10.5789 49.4846 15.5759 49.4846C16.0645 49.4846 16.546 49.4555 17.0231 49.4114C17.1048 49.4039 17.1868 49.3979 17.2682 49.3888C17.7189 49.3403 18.1634 49.2717 18.6017 49.1853C18.7006 49.1658 18.7984 49.1428 18.8967 49.1215C19.293 49.0352 19.6841 48.9356 20.0685 48.8202C20.143 48.7976 20.2181 48.777 20.2922 48.7535C20.6765 48.6313 21.052 48.4899 21.4227 48.3397C21.5493 48.2881 21.676 48.237 21.8011 48.1825C22.1666 48.0226 22.5254 47.851 22.8756 47.6648C22.994 47.6017 23.1091 47.5338 23.2257 47.4677C23.5126 47.3055 23.794 47.1348 24.0694 46.9551C24.1651 46.8927 24.2635 46.8341 24.3578 46.7698C24.6854 46.5456 25.0009 46.3056 25.3097 46.0579C25.4214 45.9682 25.532 45.8771 25.6412 45.7845C25.9431 45.5284 26.2379 45.2647 26.5192 44.9864C26.6032 44.9037 26.6822 44.8154 26.7643 44.7303C26.9862 44.5012 27.2004 44.2647 27.408 44.0221C27.5008 43.9136 27.5955 43.8068 27.6855 43.6954C27.9253 43.3992 28.1527 43.0928 28.3706 42.7793C28.5001 42.5926 28.6198 42.3981 28.7418 42.2054C28.8652 42.01 28.9872 41.814 29.102 41.6128C29.218 41.4097 29.3275 41.2026 29.4351 40.9941C29.5399 40.7898 29.6387 40.5821 29.7346 40.3725C29.8323 40.1602 29.928 39.9471 30.0164 39.7294C30.1626 39.367 30.3013 39.0007 30.4205 38.6256C30.4329 38.5814 30.4443 38.5363 30.4574 38.4931C30.465 38.4686 30.4736 38.4449 30.4823 38.4211C30.4828 38.4191 30.4831 38.4175 30.4837 38.4158C30.4752 38.4389 30.4668 38.4621 30.4595 38.4859C30.8668 37.1456 31.0888 35.5621 31.1513 33.8981C31.1476 28.6765 28.5667 24.0678 24.6205 21.2442Z" fill="white"/>
<path d="M48.8366 18.4097H40.2761V49.5195H48.8366V18.4097Z" fill="#2FBF71"/>
<path d="M48.8366 0.141541H40.2761V9.1776H48.8366V0.141541Z" fill="white"/>
<path d="M76.5647 31.0322C76.5641 31.0314 76.5637 31.0307 76.5631 31.03C78.607 28.7237 79.7343 25.7482 79.7315 22.6667V18.3865H71.1716V22.6667C71.168 24.9205 69.3418 26.7465 67.0882 26.75C67.0326 26.75 66.9775 26.756 66.9219 26.7568C66.9366 26.7565 66.9511 26.757 66.9658 26.757C66.7193 26.7592 66.4734 26.7702 66.2279 26.7868C66.2525 26.7851 66.2769 26.7835 66.3015 26.7818C66.1749 26.7896 66.0484 26.7959 65.9221 26.8076C65.9355 26.8064 65.9488 26.806 65.9622 26.805C65.7032 26.8281 65.4455 26.8614 65.1886 26.9005C65.2267 26.8948 65.2647 26.8895 65.3028 26.8842C65.1798 26.9017 65.0565 26.9157 64.9341 26.9368C64.9461 26.9349 64.9584 26.9337 64.9704 26.9318C64.6717 26.9824 64.3751 27.0448 64.0807 27.117C64.1477 27.1005 64.2151 27.088 64.2822 27.0727C64.1749 27.0971 64.0665 27.1163 63.9598 27.1435C63.9706 27.1408 63.9816 27.1391 63.9924 27.1365C63.6604 27.2203 63.3316 27.3172 63.0068 27.4281L63.0053 27.431V27.4262C63.3198 27.3187 63.6386 27.2256 63.9598 27.1435C63.64 27.2253 63.3214 27.3185 63.0053 27.4262V0H54.4449V39.3937V49.5586H63.0053V39.3957V39.3945H63.0054C63.0054 39.3949 63.0053 39.3954 63.0053 39.3957C63.0053 39.3954 63.0055 39.3949 63.0055 39.3947L63.0068 39.3957C63.0105 37.1422 64.8365 35.3162 67.0901 35.3126C67.215 35.3126 67.3376 35.2965 67.4619 35.2928C68.045 35.3464 68.6195 35.5183 69.1429 35.8228C70.4126 36.5621 71.1874 37.9266 71.1716 39.3957V49.5603H79.732V39.3957C79.7348 36.3144 78.6074 33.3391 76.5639 31.0331C76.5641 31.0326 76.5645 31.0324 76.5647 31.0322Z" fill="#2FBF71"/>
<path d="M76.5639 31.0331C76.5641 31.0326 76.5645 31.0324 76.5647 31.0322C74.1685 28.3099 70.7167 26.7508 67.0902 26.752C65.7011 26.7508 64.3214 26.9793 63.0068 27.4281L63.0053 27.431V27.4262C57.8899 29.1793 54.4512 33.9862 54.4449 39.3938V49.5586H63.0053V39.3957V39.3945H63.0054C63.0054 39.3949 63.0053 39.3954 63.0053 39.3957C63.0053 39.3954 63.0055 39.3949 63.0055 39.3947L63.0068 39.3957C63.0105 37.1422 64.8365 35.3162 67.0902 35.3126C67.215 35.3126 67.3376 35.2965 67.462 35.2929C68.0451 35.3464 68.6196 35.5183 69.1429 35.8228C70.4127 36.5621 71.1874 37.9266 71.1716 39.3957V49.5603H79.732V39.3957C79.7348 36.3144 78.6075 33.3391 76.5639 31.0331Z" fill="white"/>
<path d="M76.5633 31.0323C74.1671 33.7544 70.7154 35.3138 67.0887 35.3124C64.8352 35.3162 63.0092 37.1422 63.0054 39.3958C62.9896 37.9266 63.7643 36.562 65.0341 35.8228C66.304 35.0835 67.8731 35.0835 69.1429 35.8228C70.4127 36.562 71.1875 37.9266 71.1716 39.3958V49.5604H79.7322V39.3958C79.7349 36.3141 78.6074 33.3384 76.5633 31.0323Z" fill="white"/>
</svg>
